<svg id="alexaOPS" xmlns="http://www.w3.org/2000/svg" xmlns:xlink="http://www.w3.org/1999/xlink" viewBox="0 0 140 140"><defs><style>.cls-1{fill:none;}.cls-2{fill:#2c973e;}.cls-3{fill:url(#linear-gradient);}.cls-4{fill:url(#radial-gradient);}.cls-5{fill:url(#linear-gradient-2);}.cls-6{fill:#ffc20e;}.cls-7{fill:url(#linear-gradient-3);}.cls-8{fill:url(#linear-gradient-4);}.cls-9{fill:url(#radial-gradient-2);}.cls-10{fill:url(#linear-gradient-5);}.cls-11{fill:url(#radial-gradient-3);}.cls-12{fill:url(#linear-gradient-6);}.cls-13{fill:url(#linear-gradient-7);}.cls-14{fill:url(#linear-gradient-8);}.cls-15{fill:url(#linear-gradient-9);}.cls-16{fill:url(#linear-gradient-10);}.cls-17{fill:url(#linear-gradient-11);}.cls-18{fill:url(#radial-gradient-4);}.cls-19{fill:url(#linear-gradient-12);}.cls-20{fill:url(#linear-gradient-13);}.cls-21{fill:url(#linear-gradient-14);}.cls-22{fill:url(#linear-gradient-15);}.cls-23{fill:url(#radial-gradient-5);}.cls-24{fill:url(#linear-gradient-16);}.cls-25{fill:#ed1d8c;}.cls-26{fill:#2b3d97;}.cls-27{fill:#ed1c24;}.cls-28,.cls-30{fill:#231f20;}.cls-28,.cls-29{stroke-miterlimit:10;}.cls-28{stroke-width:4px;stroke:url(#Foliage);}.cls-29,.cls-31{fill:#fff;}.cls-29{stroke:#fff;}</style><linearGradient id="linear-gradient" x1="-38892.45" y1="-52899.07" x2="-38915.74" y2="-52891.14" gradientTransform="matrix(1, 0, 0, -1, 39260.56, -52670.32)" gradientUnits="userSpaceOnUse"><stop offset="0.23" stop-color="#faa61a"/><stop offset="0.76" stop-color="#ffc20e"/></linearGradient><radialGradient id="radial-gradient" cx="-38813.92" cy="-52929.51" r="133.44" gradientTransform="matrix(1, 0, 0, -1, 39260.56, -52670.32)" gradientUnits="userSpaceOnUse"><stop offset="0.35" stop-color="#58ab40"/><stop offset="0.76" stop-color="#80c342"/></radialGradient><linearGradient id="linear-gradient-2" x1="54974.19" y1="-52843.25" x2="54974.19" y2="-52815.15" gradientTransform="translate(55391.87 -52670.32) rotate(180)" xlink:href="#linear-gradient"/><linearGradient id="linear-gradient-3" x1="55313.34" y1="-52899.07" x2="55290.05" y2="-52891.14" gradientTransform="translate(55391.87 -52670.32) rotate(180)" xlink:href="#linear-gradient"/><linearGradient id="linear-gradient-4" x1="-39231.59" y1="-52843.25" x2="-39231.59" y2="-52815.15" xlink:href="#linear-gradient"/><radialGradient id="radial-gradient-2" cx="-39260.56" cy="-52929.51" r="133.44" xlink:href="#radial-gradient"/><linearGradient id="linear-gradient-5" x1="54910.19" y1="37026.94" x2="54910.19" y2="37055.05" gradientTransform="matrix(-1, 0, 0, 1, 55327.87, -36940.69)" xlink:href="#linear-gradient"/><radialGradient id="radial-gradient-3" cx="-38813.92" cy="-52670.32" r="133.44" xlink:href="#radial-gradient"/><linearGradient id="linear-gradient-6" x1="-38892.45" y1="36985.66" x2="-38915.74" y2="36993.6" gradientTransform="translate(39260.56 -36955.23)" xlink:href="#linear-gradient"/><linearGradient id="linear-gradient-7" x1="55133.51" y1="37156.53" x2="55133.51" y2="37184.64" gradientTransform="matrix(-1, 0, 0, 1, 55327.87, -36940.69)" xlink:href="#linear-gradient"/><linearGradient id="linear-gradient-8" x1="-38944.27" y1="37156.53" x2="-38944.27" y2="37184.64" gradientTransform="translate(39196.56 -36940.69)" xlink:href="#linear-gradient"/><linearGradient id="linear-gradient-9" x1="55090.02" y1="-52769.48" x2="55066.73" y2="-52761.54" gradientTransform="translate(55391.87 -52670.32) rotate(180)" xlink:href="#linear-gradient"/><linearGradient id="linear-gradient-10" x1="-39115.77" y1="-52769.48" x2="-39139.06" y2="-52761.54" xlink:href="#linear-gradient"/><linearGradient id="linear-gradient-11" x1="-39008.27" y1="-52713.66" x2="-39008.27" y2="-52685.55" xlink:href="#linear-gradient"/><radialGradient id="radial-gradient-4" cx="-39037.24" cy="-52799.91" r="133.44" xlink:href="#radial-gradient"/><linearGradient id="linear-gradient-12" x1="55090.02" y1="37115.25" x2="55066.73" y2="37123.19" gradientTransform="matrix(-1, 0, 0, 1, 55391.87, -36955.23)" xlink:href="#linear-gradient"/><linearGradient id="linear-gradient-13" x1="-39115.77" y1="37115.25" x2="-39139.06" y2="37123.19" gradientTransform="translate(39260.56 -36955.23)" xlink:href="#linear-gradient"/><linearGradient id="linear-gradient-14" x1="55197.51" y1="-52713.66" x2="55197.51" y2="-52685.55" gradientTransform="translate(55391.87 -52670.32) rotate(180)" xlink:href="#linear-gradient"/><linearGradient id="linear-gradient-15" x1="-39167.59" y1="37026.94" x2="-39167.59" y2="37055.05" gradientTransform="translate(39196.56 -36940.69)" xlink:href="#linear-gradient"/><radialGradient id="radial-gradient-5" cx="-39260.56" cy="-52670.32" r="133.44" xlink:href="#radial-gradient"/><linearGradient id="linear-gradient-16" x1="55313.34" y1="36985.66" x2="55290.05" y2="36993.6" gradientTransform="matrix(-1, 0, 0, 1, 55391.87, -36955.23)" xlink:href="#linear-gradient"/><pattern id="Foliage" data-name="Foliage" width="446.64" height="259.18" patternUnits="userSpaceOnUse" viewBox="0 0 446.64 259.18"><rect class="cls-1" width="446.64" height="259.18"/><path class="cls-2" d="M378.84,190.69a32.84,32.84,0,0,1,11.44,22.75c1.08-10.23,3.2-18.13,8.21-24,0,0-6.33,3.1-8.62,9.15C386.92,193.38,378.84,190.69,378.84,190.69Z"/><path class="cls-2" d="M364.84,139.81c1.22,6,6.31,11.18,12.92,13.73a21.14,21.14,0,0,1,2.15-19.79,21.46,21.46,0,0,0,5.79,18,18.18,18.18,0,0,1,1.08-13.87c-.94,8.48,6.17,12.79,15.62,18.44,12.66,7.58,17.28,16,19.25,27.23-3.45-6.87-9.9-13.14-27.86-17.29C371.49,161.14,363.39,153.88,364.84,139.81Z"/><path class="cls-3" d="M365.11,232c-4.69-4.6-6.91-12.18-7.27-21.72-.47-12.53-5.41-17.66-13.33-18.53,11.8,4.58,4.44,17.12,7.94,25.85-6.44-4.79-4.38-20.68-17.63-21.4,9.78,3.2,2.83,16.68,9.29,24.5-7.81-.11-11.4,6.13-21.54,3.23,4.71,3.64,10,5.92,18.85,5.92-6.25,3.86-9,8.63-11.31,15.35C340.24,234.61,355,230.54,365.11,232Z"/><path class="cls-4" d="M482.48,266.46c29.44,4,46.23,20.79,49.15,36.55-3.92-9.25-13-15.22-23.6-18.63,10.62,14,7.19,31.87,21.12,41.7-10.37-11-7.21-24.46-14.9-36.73,12.26,6.9,14.12,16.67,17,27.15,4.38,15.84,11.54,20.09,17.22,22.18-11.7.45-28.66-4.53-36.78-20.1-8.61-16.51-1.45-34.41-22.48-43.77,9.6,8.06,14.73,19.52,8.69,34.42,2.26-21.92-20.63-25.5-24.31-40.45-.63,11.53,7.18,21.22,14.55,25.9-10.29-3.37-19.21-9-23.42-21.82-6.92,21.39,5.31,38.45,12.9,38.45,2.63,0,4.54-1.67,4.54-4.16,0-6.45-11.64-6.45-14.6-18.85,5.32,10.82,25.55,8.87,25.55,20.76,0,9.74-13.64,14-22.36,8,6.39,8.34,21.26,8.62,25.55-1.42.66,4.31-1.31,10.76-7.45,13.13-7,2.7-13.48-2.48-13.48-2.48,7.64,11,20.94,3.67,34.07,3.9,10.87.19,18.11,5.82,21.29,11.18a15.2,15.2,0,0,0-7.63-2,21.14,21.14,0,0,1,9,21.47c-1.3-6.25-8.57-10.68-22.36-11.63-15.56-1.08-23.81-3.57-29.1-9.3,11.2,5,28.94-1.91,41,6-7.45-8.54-23.93-6.09-35.71-8-20.71-3.32-33.32-38.29-31.71-53.63-5.66,23.42,9.46,36.2,12.79,49.13,3.63,14.13-3.37,23.83-9.95,28.8,10.28-15.4-7.42-24.63-4.61-44.36-5.23,19.19,4.44,24.66,4.44,34.6,0,9.76-8.58,13-10.29,25.55-1.71-12.55-10.29-15.79-10.29-25.55,0-9.94,9.66-15.41,4.44-34.6,2.8,19.73-14.89,29-4.61,44.36-6.58-5-13.58-14.67-9.95-28.8,3.32-12.93,18.44-25.71,12.79-49.13,1.62,15.35-11,50.31-31.71,53.63-11.78,1.89-28.26-.56-35.72,8,12-7.94,29.78-1.08,41-6-5.29,5.73-13.54,8.23-29.1,9.3-13.79,1-21.06,5.38-22.36,11.63a21.13,21.13,0,0,1,9-21.47,15.2,15.2,0,0,0-7.63,2c3.19-5.36,10.42-11,21.29-11.18,13.13-.23,26.42,7.11,34.07-3.9,0,0-6.5,5.18-13.48,2.48-6.15-2.37-8.12-8.82-7.45-13.13,4.29,10,19.16,9.76,25.55,1.42-8.72,6.05-22.36,1.75-22.36-8,0-11.89,20.23-9.94,25.55-20.76-3,12.41-14.6,12.41-14.6,18.85,0,2.49,1.91,4.16,4.54,4.16,7.58,0,19.82-17.06,12.9-38.45-4.2,12.83-13.13,18.45-23.42,21.82,7.37-4.68,15.18-14.37,14.55-25.9-3.68,14.95-26.56,18.53-24.31,40.45-6-14.9-.91-26.37,8.7-34.42-21,9.36-13.87,27.26-22.48,43.77-8.12,15.57-25.08,20.55-36.78,20.1,5.67-2.09,12.84-6.33,17.22-22.18,2.9-10.48,4.77-20.25,17-27.15-7.69,12.27-4.54,25.69-14.9,36.73,13.92-9.83,10.5-27.68,21.11-41.7-10.62,3.41-19.68,9.38-23.6,18.63,2.91-15.76,19.71-32.53,49.15-36.55-30.33-1.29-36.17,15.55-51.46,16.16-9.68.38-18.14-8.39-28-13.68,12.11,3.07,31.11,11.33,41.16-2.13,0,0-6.19,5.26-18.28,3.73-12.27-1.56-23.46-9.4-54.12-11.36,30.65-2,41.84-9.8,54.12-11.36,12.08-1.54,18.28,3.72,18.28,3.72-10.06-13.46-29.05-5.2-41.16-2.13,9.9-5.29,18.35-14.06,28-13.68,15.28.61,21.13,17.45,51.46,16.16-29.44-4-46.23-20.79-49.15-36.55,3.92,9.25,13,15.22,23.6,18.63-10.62-14-7.19-31.87-21.11-41.7,10.37,11,7.21,24.46,14.9,36.73-12.26-6.89-14.13-16.67-17-27.15-4.38-15.85-11.55-20.09-17.22-22.18,11.7-.45,28.66,4.53,36.78,20.1,8.61,16.51,1.45,34.41,22.48,43.77-9.6-8.06-14.73-19.52-8.7-34.42-2.25,21.92,20.63,25.5,24.31,40.45.63-11.53-7.18-21.22-14.55-25.9,10.29,3.37,19.22,9,23.42,21.82,6.93-21.39-5.31-38.45-12.9-38.45-2.63,0-4.54,1.67-4.54,4.16,0,6.45,11.64,6.45,14.6,18.85-5.32-10.82-25.55-8.87-25.55-20.76,0-9.74,13.64-14,22.36-8-6.39-8.34-21.26-8.62-25.55,1.42-.66-4.31,1.31-10.76,7.45-13.13,7-2.7,13.48,2.48,13.48,2.48-7.64-11-20.94-3.67-34.07-3.9C373,188,365.72,182.39,362.54,177a15.23,15.23,0,0,0,7.63,2,21.14,21.14,0,0,1-9-21.47c1.3,6.25,8.57,10.68,22.36,11.63,15.56,1.08,23.81,3.57,29.1,9.3-11.2-5-28.94,1.91-41-6,7.45,8.54,23.93,6.09,35.72,8C428,183.73,440.63,218.69,439,234c5.65-23.42-9.46-36.2-12.79-49.13-3.63-14.13,3.37-23.83,9.95-28.8-10.28,15.4,7.42,24.63,4.61,44.36,5.23-19.19-4.44-24.66-4.44-34.6,0-9.76,8.59-13,10.29-25.55,1.71,12.55,10.29,15.79,10.29,25.55,0,9.94-9.66,15.41-4.44,34.6-2.8-19.73,14.89-29,4.61-44.36,6.58,5,13.58,14.67,9.95,28.8-3.33,12.93-18.44,25.71-12.79,49.13-1.62-15.35,11-50.31,31.71-53.63,11.78-1.89,28.26.56,35.71-8-12.05,7.94-29.79,1.07-41,6,5.29-5.74,13.54-8.23,29.1-9.3,13.78-1,21.06-5.38,22.36-11.63a21.14,21.14,0,0,1-9,21.47,15.23,15.23,0,0,0,7.63-2c-3.19,5.36-10.42,11-21.29,11.18-13.13.23-26.43-7.11-34.07,3.9,0,0,6.5-5.18,13.48-2.48,6.14,2.37,8.12,8.82,7.45,13.13-4.29-10-19.16-9.76-25.55-1.42,8.72-6.05,22.36-1.75,22.36,8,0,11.89-20.23,9.94-25.55,20.76,3-12.4,14.6-12.4,14.6-18.85,0-2.49-1.91-4.16-4.54-4.16-7.59,0-19.82,17.06-12.9,38.45,4.21-12.83,13.13-18.45,23.42-21.82-7.37,4.68-15.18,14.37-14.55,25.9,3.68-14.95,26.56-18.53,24.31-40.45,6,14.9.91,26.37-8.69,34.42,21-9.36,13.87-27.26,22.48-43.77,8.12-15.57,25.08-20.55,36.78-20.1-5.68,2.09-12.84,6.33-17.22,22.18-2.9,10.48-4.77,20.25-17,27.15,7.69-12.26,4.54-25.69,14.9-36.73C515.22,202.12,518.65,220,508,234c10.62-3.41,19.68-9.38,23.6-18.63-2.92,15.76-19.71,32.53-49.15,36.55,30.33,1.29,36.17-15.55,51.45-16.16,9.68-.38,18.14,8.39,28,13.68-12.11-3.07-31.11-11.33-41.16,2.13,0,0,6.19-5.26,18.28-3.72,12.27,1.56,23.46,9.4,54.12,11.36-30.65,2-41.84,9.8-54.12,11.36-12.08,1.53-18.28-3.73-18.28-3.73,10.06,13.46,29.05,5.2,41.16,2.13-9.9,5.29-18.35,14.06-28,13.68C518.65,282,512.81,265.17,482.48,266.46Zm33.36-7.27c4.61,1.24,8.63,3.77,14.49,3.77,7.11,0,11.07-2.75,16.74-3.77-5.67-1-9.63-3.77-16.74-3.77C524.47,255.42,520.45,257.94,515.84,259.19Zm-72.21-90.31c0,5.12,3,8.4,3,12.12,0-3.73,3-7,3-12.12,0-4.57-2.25-6.65-3-11.43C445.87,162.22,443.62,164.31,443.62,168.87Zm-66.18,90.31c-4.61-1.24-8.63-3.77-14.49-3.77-7.11,0-11.07,2.75-16.74,3.77,5.67,1,9.63,3.77,16.74,3.77C368.81,263,372.83,260.43,377.44,259.19Zm72.21,90.31c0-5.12-3-8.4-3-12.12,0,3.72-3,7-3,12.12,0,4.57,2.25,6.65,3,11.43C447.41,356.15,449.66,354.06,449.66,349.5Zm42.05-90.31c-9.94,0-24.09-5-35-3a24.69,24.69,0,0,0,7.45-6.74c-4.41.43-6.76.8-10.11,2.31,2.66-6,3.19-9.4,3.72-15.44a31.39,31.39,0,0,0-6.56,10.65c.71-12.42-4.26-15.25-4.61-31.76-.36,16.51-5.32,19.34-4.61,31.76a31.33,31.33,0,0,0-6.56-10.65c.53,6,1.06,9.42,3.73,15.44-3.36-1.51-5.71-1.87-10.12-2.31a24.71,24.71,0,0,0,7.45,6.74c-10.87-2-25,3-35,3,9.94,0,24.09,5,35,3a24.67,24.67,0,0,0-7.45,6.74c4.41-.43,6.76-.8,10.12-2.31-2.66,6-3.2,9.4-3.73,15.44A31.34,31.34,0,0,0,442,271.43c-.71,12.42,4.26,15.25,4.61,31.76.36-16.51,5.32-19.34,4.61-31.76a31.4,31.4,0,0,0,6.56,10.65c-.53-6-1.06-9.42-3.72-15.44,3.36,1.51,5.71,1.87,10.11,2.31a24.64,24.64,0,0,0-7.45-6.74C467.62,264.17,481.77,259.19,491.71,259.19Z"/><path class="cls-5" d="M391.76,137.92C394.4,151.75,417.13,154.18,422,172c3.77-19.12,21.29-19.87,21.54-33.11-3.18,7.8-10.84,5.79-15.88,12.12.85-6.15,4.63-11.89,12.38-15.08-7.67-1.08-15.63,1.83-19.12,9.56-2.56-4.17-2.81-8.45-.67-13.87a15.19,15.19,0,0,0-5.65,16.56C407.38,140.88,396.74,144.92,391.76,137.92Z"/><path class="cls-6" d="M464.86,259.19c-4.26-.66-9.39-3.2-14.13-1.22,2.32-1.8,1.14-3.51,2.53-5.2-1.92,1.39-3.51.5-5,2.75,1.54-5.31-.53-8.14-1.63-14.12-1.1,6-3.17,8.81-1.63,14.12-1.47-2.24-3.07-1.36-5-2.75,1.38,1.68.21,3.39,2.53,5.2-4.74-2-9.87.56-14.13,1.22,4.26.67,9.39,3.2,14.13,1.22-2.32,1.8-1.14,3.52-2.53,5.2,1.92-1.39,3.51-.5,5-2.74-1.54,5.31.53,8.14,1.63,14.12,1.1-6,3.17-8.81,1.63-14.12,1.48,2.24,3.07,1.36,5,2.74-1.38-1.68-.21-3.39-2.53-5.2C455.47,262.38,460.6,259.85,464.86,259.19Z"/><path class="cls-7" d="M81.53,232c4.69-4.6,6.91-12.18,7.27-21.72.47-12.53,5.41-17.66,13.33-18.53-11.8,4.58-4.44,17.12-7.94,25.85,6.44-4.79,4.38-20.68,17.63-21.4-9.78,3.2-2.84,16.68-9.29,24.5,7.81-.11,11.4,6.13,21.54,3.23-4.72,3.64-10,5.92-18.85,5.92,6.25,3.86,9,8.63,11.31,15.35C106.4,234.61,91.68,230.54,81.53,232Z"/><path class="cls-2" d="M67.8,190.69a32.84,32.84,0,0,0-11.44,22.75c-1.08-10.23-3.2-18.13-8.21-24,0,0,6.33,3.1,8.62,9.15C59.72,193.38,67.8,190.69,67.8,190.69Z"/><path class="cls-2" d="M81.8,139.81c-1.22,6-6.31,11.18-12.92,13.73a21.15,21.15,0,0,0-2.15-19.79,21.45,21.45,0,0,1-5.79,18,18.18,18.18,0,0,0-1.08-13.87c.94,8.48-6.17,12.79-15.62,18.44C31.58,163.94,27,172.41,25,183.59c3.45-6.87,9.9-13.14,27.86-17.29C75.15,161.14,83.25,153.88,81.8,139.81Z"/><path class="cls-8" d="M54.88,137.92C52.24,151.75,29.51,154.18,24.59,172c-3.77-19.12-21.29-19.87-21.54-33.11,3.18,7.8,10.84,5.79,15.88,12.12-.85-6.15-4.63-11.89-12.38-15.08,7.67-1.08,15.62,1.83,19.12,9.56,2.56-4.17,2.81-8.45.67-13.87A15.19,15.19,0,0,1,32,148.15C39.26,140.88,49.9,144.92,54.88,137.92Z"/><path class="cls-9" d="M35.84,266.46c29.44,4,46.23,20.79,49.15,36.55-3.92-9.25-13-15.22-23.6-18.63,10.62,14,7.19,31.87,21.12,41.7-10.37-11-7.21-24.46-14.9-36.73,12.26,6.9,14.12,16.67,17,27.15,4.38,15.84,11.54,20.09,17.22,22.18-11.7.45-28.66-4.53-36.78-20.1-8.61-16.51-1.45-34.41-22.48-43.77,9.6,8.06,14.73,19.52,8.69,34.42,2.26-21.92-20.63-25.5-24.31-40.45-.63,11.53,7.18,21.22,14.55,25.9-10.29-3.37-19.21-9-23.42-21.82C11.17,294.24,23.41,311.3,31,311.3c2.63,0,4.54-1.67,4.54-4.16,0-6.45-11.64-6.45-14.6-18.85,5.32,10.82,25.55,8.87,25.55,20.76,0,9.74-13.64,14-22.36,8,6.39,8.34,21.26,8.62,25.55-1.42.66,4.31-1.31,10.76-7.45,13.13-7,2.7-13.48-2.48-13.48-2.48,7.64,11,20.94,3.67,34.07,3.9,10.87.19,18.11,5.82,21.29,11.18a15.2,15.2,0,0,0-7.63-2,21.14,21.14,0,0,1,9,21.47c-1.3-6.25-8.57-10.68-22.36-11.63-15.56-1.08-23.81-3.57-29.1-9.3,11.2,5,28.94-1.91,41,6-7.45-8.54-23.93-6.09-35.71-8C18.63,334.64,6,299.68,7.63,284.33c-5.66,23.42,9.46,36.2,12.79,49.13,3.63,14.13-3.37,23.83-9.95,28.8,10.28-15.4-7.42-24.63-4.61-44.36-5.23,19.19,4.44,24.66,4.44,34.6,0,9.76-8.58,13-10.29,25.55-1.7-12.55-10.29-15.79-10.29-25.55,0-9.94,9.66-15.41,4.44-34.6,2.8,19.73-14.89,29-4.61,44.36-6.58-5-13.58-14.67-9.95-28.8C-17.09,320.54-2,307.76-7.63,284.33c1.62,15.35-11,50.31-31.71,53.63-11.78,1.89-28.26-.56-35.72,8,12-7.94,29.78-1.08,41-6-5.29,5.73-13.54,8.23-29.1,9.3-13.79,1-21.06,5.38-22.36,11.63a21.13,21.13,0,0,1,9-21.47,15.2,15.2,0,0,0-7.63,2c3.19-5.36,10.42-11,21.29-11.18,13.13-.23,26.42,7.11,34.07-3.9,0,0-6.5,5.18-13.48,2.48-6.15-2.37-8.12-8.82-7.45-13.13,4.29,10,19.16,9.76,25.55,1.42-8.72,6.05-22.36,1.75-22.36-8,0-11.89,20.23-9.94,25.55-20.76-3,12.41-14.6,12.41-14.6,18.85,0,2.49,1.91,4.16,4.54,4.16,7.58,0,19.82-17.06,12.9-38.45-4.2,12.83-13.13,18.45-23.42,21.82C-34.15,290-26.34,280.3-27,268.77c-3.68,14.95-26.56,18.53-24.31,40.45-6-14.9-.91-26.37,8.7-34.42-21,9.36-13.87,27.26-22.48,43.77-8.12,15.57-25.08,20.55-36.78,20.1,5.67-2.09,12.84-6.33,17.22-22.18,2.9-10.48,4.77-20.25,17-27.15-7.69,12.27-4.54,25.69-14.9,36.73,13.92-9.83,10.5-27.68,21.11-41.7C-72,287.79-81.07,293.76-85,303c2.91-15.76,19.71-32.53,49.15-36.55C-66.17,265.17-72,282-87.3,282.62c-9.68.38-18.14-8.39-28-13.68,12.11,3.07,31.11,11.33,41.16-2.13,0,0-6.19,5.26-18.28,3.73-12.27-1.56-23.46-9.4-54.12-11.36,30.65-2,41.84-9.8,54.12-11.36,12.08-1.54,18.28,3.72,18.28,3.72-10.06-13.46-29.05-5.2-41.16-2.13,9.9-5.29,18.35-14.06,28-13.68,15.28.61,21.13,17.45,51.46,16.16-29.44-4-46.23-20.79-49.15-36.55,3.92,9.25,13,15.22,23.6,18.63-10.62-14-7.19-31.87-21.11-41.7,10.37,11,7.21,24.46,14.9,36.73-12.26-6.89-14.13-16.67-17-27.15C-89,186-96.17,181.79-101.85,179.7c11.7-.45,28.66,4.53,36.78,20.1,8.61,16.51,1.45,34.41,22.48,43.77-9.6-8.06-14.73-19.52-8.7-34.42-2.25,21.92,20.63,25.5,24.31,40.45.63-11.53-7.18-21.22-14.55-25.9,10.29,3.37,19.22,9,23.42,21.82,6.93-21.39-5.31-38.45-12.9-38.45-2.63,0-4.54,1.67-4.54,4.16,0,6.45,11.64,6.45,14.6,18.85-5.32-10.82-25.55-8.87-25.55-20.76,0-9.74,13.64-14,22.36-8-6.39-8.34-21.26-8.62-25.55,1.42-.66-4.31,1.31-10.76,7.45-13.13,7-2.7,13.48,2.48,13.48,2.48-7.64-11-20.94-3.67-34.07-3.9C-73.68,188-80.92,182.39-84.1,177a15.23,15.23,0,0,0,7.63,2,21.14,21.14,0,0,1-9-21.47c1.3,6.25,8.57,10.68,22.36,11.63,15.56,1.08,23.81,3.57,29.1,9.3-11.2-5-28.94,1.91-41-6,7.45,8.54,23.93,6.09,35.72,8C-18.63,183.73-6,218.69-7.63,234c5.65-23.42-9.46-36.2-12.79-49.13-3.63-14.13,3.37-23.83,9.95-28.8-10.28,15.4,7.42,24.63,4.61,44.36,5.23-19.19-4.44-24.66-4.44-34.6,0-9.76,8.59-13,10.29-25.55,1.71,12.55,10.29,15.79,10.29,25.55,0,9.94-9.66,15.41-4.44,34.6-2.8-19.73,14.89-29,4.61-44.36,6.58,5,13.58,14.67,9.95,28.8C17.09,197.83,2,210.61,7.63,234c-1.62-15.35,11-50.31,31.71-53.63,11.78-1.89,28.26.56,35.71-8-12.05,7.94-29.79,1.07-41,6,5.29-5.74,13.54-8.23,29.1-9.3,13.78-1,21.06-5.38,22.36-11.63a21.14,21.14,0,0,1-9,21.47,15.23,15.23,0,0,0,7.63-2c-3.19,5.36-10.42,11-21.29,11.18-13.13.23-26.43-7.11-34.07,3.9,0,0,6.5-5.18,13.48-2.48,6.14,2.37,8.12,8.82,7.45,13.13-4.29-10-19.16-9.76-25.55-1.42,8.72-6.05,22.36-1.75,22.36,8,0,11.89-20.23,9.94-25.55,20.76,3-12.4,14.6-12.4,14.6-18.85,0-2.49-1.91-4.16-4.54-4.16-7.59,0-19.82,17.06-12.9,38.45,4.21-12.83,13.13-18.45,23.42-21.82-7.37,4.68-15.18,14.37-14.55,25.9,3.68-14.95,26.56-18.53,24.31-40.45,6,14.9.91,26.37-8.69,34.42,21-9.36,13.87-27.26,22.48-43.77,8.12-15.57,25.08-20.55,36.78-20.1C96.17,181.79,89,186,84.62,201.88c-2.9,10.48-4.77,20.25-17,27.15,7.69-12.26,4.54-25.69,14.9-36.73C68.58,202.12,72,220,61.39,234,72,230.58,81.07,224.61,85,215.36c-2.92,15.76-19.71,32.53-49.15,36.55C66.17,253.2,72,236.36,87.29,235.75c9.68-.38,18.14,8.39,28,13.68-12.11-3.07-31.11-11.33-41.16,2.13,0,0,6.19-5.26,18.28-3.72,12.27,1.56,23.46,9.4,54.12,11.36-30.65,2-41.84,9.8-54.12,11.36-12.08,1.53-18.28-3.73-18.28-3.73,10.06,13.46,29.05,5.2,41.16,2.13-9.9,5.29-18.35,14.06-28,13.68C72,282,66.17,265.17,35.84,266.46Zm33.36-7.27c4.61,1.24,8.63,3.77,14.49,3.77,7.11,0,11.07-2.75,16.74-3.77-5.67-1-9.63-3.77-16.74-3.77C77.83,255.42,73.81,257.94,69.2,259.19ZM-3,168.87c0,5.12,3,8.4,3,12.12,0-3.73,3-7,3-12.12,0-4.57-2.25-6.65-3-11.43C-.77,162.22-3,164.31-3,168.87ZM-69.2,259.19c-4.61-1.24-8.63-3.77-14.49-3.77-7.11,0-11.07,2.75-16.74,3.77,5.67,1,9.63,3.77,16.74,3.77C-77.83,263-73.81,260.43-69.2,259.19ZM3,349.5c0-5.12-3-8.4-3-12.12,0,3.72-3,7-3,12.12,0,4.57,2.25,6.65,3,11.43C.77,356.15,3,354.06,3,349.5Zm42.05-90.31c-9.94,0-24.09-5-35-3a24.68,24.68,0,0,0,7.45-6.74c-4.41.43-6.76.8-10.11,2.31,2.66-6,3.19-9.4,3.72-15.44a31.39,31.39,0,0,0-6.56,10.65C5.32,234.52.35,231.7,0,215.18c-.36,16.51-5.32,19.34-4.61,31.76a31.34,31.34,0,0,0-6.56-10.65c.53,6,1.06,9.42,3.73,15.44-3.36-1.51-5.71-1.87-10.12-2.31a24.71,24.71,0,0,0,7.45,6.74c-10.87-2-25,3-35,3,9.94,0,24.09,5,35,3a24.67,24.67,0,0,0-7.45,6.74c4.41-.43,6.76-.8,10.12-2.31-2.66,6-3.2,9.4-3.73,15.44a31.35,31.35,0,0,0,6.56-10.65C-5.32,283.85-.36,286.67,0,303.19c.36-16.51,5.32-19.34,4.61-31.76a31.4,31.4,0,0,0,6.56,10.65c-.53-6-1.06-9.42-3.72-15.44,3.36,1.51,5.71,1.87,10.11,2.31a24.64,24.64,0,0,0-7.45-6.74C21,264.17,35.13,259.19,45.07,259.19Z"/><path class="cls-6" d="M18.22,259.19C14,258.52,8.83,256,4.09,258c2.32-1.8,1.14-3.51,2.53-5.2-1.92,1.39-3.51.5-5,2.75C3.17,250.2,1.1,247.37,0,241.4c-1.1,6-3.17,8.81-1.63,14.12-1.47-2.24-3.07-1.36-5-2.75,1.38,1.68.2,3.39,2.53,5.2-4.74-2-9.87.56-14.13,1.22,4.26.67,9.39,3.2,14.13,1.22-2.32,1.8-1.14,3.52-2.53,5.2,1.92-1.39,3.51-.5,5-2.74C-3.17,268.17-1.1,271,0,277c1.1-6,3.17-8.81,1.63-14.12,1.48,2.24,3.07,1.36,5,2.74-1.38-1.68-.21-3.39-2.53-5.2C8.83,262.38,14,259.85,18.22,259.19Z"/><path class="cls-10" d="M391.76,121.26C394.4,107.43,417.13,105,422,87.21c3.77,19.12,21.29,19.87,21.54,33.12-3.18-7.8-10.84-5.79-15.88-12.12.85,6.15,4.63,11.89,12.38,15.08-7.67,1.08-15.63-1.83-19.12-9.56-2.56,4.17-2.81,8.45-.67,13.87A15.19,15.19,0,0,1,414.65,111C407.38,118.3,396.74,114.26,391.76,121.26Z"/><path class="cls-2" d="M378.84,68.5a32.84,32.84,0,0,0,11.44-22.75c1.08,10.23,3.2,18.13,8.21,24,0,0-6.33-3.1-8.62-9.15C386.92,65.8,378.84,68.5,378.84,68.5Z"/><path class="cls-2" d="M364.84,119.38c1.22-6,6.31-11.18,12.92-13.73a21.14,21.14,0,0,0,2.15,19.79,21.46,21.46,0,0,1,5.79-18,18.18,18.18,0,0,0,1.08,13.87c-.94-8.48,6.17-12.79,15.62-18.44,12.66-7.58,17.28-16,19.25-27.23-3.45,6.87-9.9,13.14-27.86,17.29C371.49,98,363.39,105.3,364.84,119.38Z"/><path class="cls-11" d="M482.48,7.27c29.44,4,46.23,20.79,49.15,36.55-3.92-9.25-13-15.22-23.6-18.63,10.62,14,7.19,31.87,21.12,41.7-10.37-11-7.21-24.46-14.9-36.73,12.26,6.9,14.12,16.67,17,27.15,4.38,15.84,11.54,20.09,17.22,22.18-11.7.45-28.66-4.53-36.78-20.1-8.61-16.51-1.45-34.41-22.48-43.77,9.6,8.06,14.73,19.52,8.69,34.42,2.26-21.92-20.63-25.51-24.31-40.45-.63,11.53,7.18,21.22,14.55,25.9-10.29-3.37-19.21-9-23.42-21.82-6.92,21.39,5.31,38.46,12.9,38.46,2.63,0,4.54-1.67,4.54-4.16,0-6.45-11.64-6.45-14.6-18.86,5.32,10.82,25.55,8.87,25.55,20.76,0,9.74-13.64,14-22.36,8,6.39,8.34,21.26,8.62,25.55-1.42.66,4.31-1.31,10.76-7.45,13.13-7,2.7-13.48-2.48-13.48-2.48,7.64,11,20.94,3.67,34.07,3.9,10.87.19,18.11,5.82,21.29,11.18a15.19,15.19,0,0,0-7.63-2,21.13,21.13,0,0,1,9,21.47C530.86,95.42,523.59,91,509.81,90c-15.56-1.08-23.81-3.57-29.1-9.3,11.2,5,28.94-1.91,41,6-7.45-8.54-23.93-6.09-35.71-8-20.71-3.32-33.32-38.29-31.71-53.63-5.66,23.42,9.46,36.2,12.79,49.13,3.63,14.13-3.37,23.83-9.95,28.8,10.28-15.4-7.42-24.63-4.61-44.36-5.23,19.19,4.44,24.66,4.44,34.6,0,9.76-8.58,13-10.29,25.55-1.71-12.55-10.29-15.79-10.29-25.55,0-9.94,9.66-15.41,4.44-34.6,2.8,19.73-14.89,29-4.61,44.36-6.58-5-13.58-14.67-9.95-28.8,3.32-12.93,18.44-25.71,12.79-49.13,1.62,15.35-11,50.31-31.71,53.63-11.78,1.89-28.26-.56-35.72,8,12-7.94,29.78-1.08,41-6C407.28,86.46,399,89,383.48,90c-13.79,1-21.06,5.38-22.36,11.63a21.13,21.13,0,0,1,9-21.47,15.19,15.19,0,0,0-7.63,2c3.19-5.36,10.42-11,21.29-11.18,13.13-.23,26.42,7.11,34.07-3.9,0,0-6.5,5.18-13.48,2.48-6.15-2.37-8.12-8.82-7.45-13.13,4.29,10,19.16,9.76,25.55,1.42-8.72,6.05-22.36,1.75-22.36-8,0-11.89,20.23-9.94,25.55-20.76-3,12.41-14.6,12.41-14.6,18.86,0,2.49,1.91,4.16,4.54,4.16,7.58,0,19.82-17.06,12.9-38.46-4.2,12.83-13.13,18.45-23.42,21.82,7.37-4.68,15.18-14.37,14.55-25.9C416,24.53,393.11,28.11,395.36,50c-6-14.9-.91-26.37,8.7-34.42C383,25,390.19,42.88,381.58,59.39c-8.12,15.57-25.08,20.55-36.78,20.1,5.67-2.09,12.84-6.33,17.22-22.18,2.9-10.48,4.77-20.25,17-27.15-7.69,12.27-4.54,25.69-14.9,36.73,13.92-9.83,10.5-27.68,21.11-41.7-10.62,3.41-19.68,9.38-23.6,18.63,2.91-15.76,19.71-32.53,49.15-36.55C380.47,6,374.63,22.83,359.34,23.44c-9.68.38-18.14-8.39-28-13.68,12.11,3.07,31.11,11.33,41.16-2.13,0,0-6.19,5.26-18.28,3.73C341.93,9.8,330.74,2,300.08,0c30.65-2,41.84-9.8,54.12-11.36,12.08-1.54,18.28,3.72,18.28,3.72-10.06-13.46-29.05-5.2-41.16-2.13,9.9-5.29,18.35-14.06,28-13.68C374.63-22.83,380.47-6,410.8-7.28c-29.44-4-46.23-20.79-49.15-36.55,3.92,9.25,13,15.22,23.6,18.63-10.62-14-7.19-31.87-21.11-41.7,10.37,11,7.21,24.46,14.9,36.73-12.26-6.89-14.13-16.67-17-27.14-4.38-15.85-11.55-20.09-17.22-22.18,11.7-.45,28.66,4.53,36.78,20.1C390.19-42.87,383-25,404.06-15.62c-9.6-8.05-14.73-19.52-8.7-34.42C393.11-28.11,416-24.53,419.67-9.58c.63-11.53-7.18-21.22-14.55-25.9,10.29,3.37,19.22,9,23.42,21.82,6.93-21.39-5.31-38.46-12.9-38.46-2.63,0-4.54,1.67-4.54,4.16,0,6.45,11.64,6.45,14.6,18.85-5.32-10.82-25.55-8.87-25.55-20.76,0-9.74,13.64-14,22.36-8-6.39-8.34-21.26-8.62-25.55,1.42-.66-4.31,1.31-10.76,7.45-13.13,7-2.7,13.48,2.48,13.48,2.48-7.64-11-20.94-3.67-34.07-3.9-10.87-.19-18.11-5.82-21.29-11.18a15.23,15.23,0,0,0,7.63,2,21.14,21.14,0,0,1-9-21.47c1.3,6.25,8.57,10.68,22.36,11.63,15.56,1.08,23.81,3.57,29.1,9.3-11.2-5-28.94,1.91-41-6,7.45,8.54,23.93,6.09,35.72,8C428-75.46,440.63-40.5,439-25.15c5.65-23.42-9.46-36.2-12.79-49.13-3.63-14.13,3.37-23.83,9.95-28.8-10.28,15.4,7.42,24.63,4.61,44.36,5.23-19.19-4.44-24.66-4.44-34.6,0-9.76,8.59-13,10.29-25.55,1.71,12.55,10.29,15.79,10.29,25.55,0,9.94-9.66,15.41-4.44,34.6-2.8-19.73,14.89-29,4.61-44.36,6.58,5,13.58,14.67,9.95,28.8-3.33,12.93-18.44,25.71-12.79,49.13-1.62-15.35,11-50.31,31.71-53.63,11.78-1.89,28.26.56,35.71-8-12.05,7.94-29.79,1.07-41,6C486-86.46,494.25-89,509.81-90c13.78-1,21.06-5.38,22.36-11.63a21.14,21.14,0,0,1-9,21.47,15.23,15.23,0,0,0,7.63-2c-3.19,5.36-10.42,11-21.29,11.18-13.13.23-26.43-7.11-34.07,3.9,0,0,6.5-5.18,13.48-2.48,6.14,2.37,8.12,8.82,7.45,13.13-4.29-10-19.16-9.76-25.55-1.42,8.72-6.05,22.36-1.75,22.36,8,0,11.89-20.23,9.94-25.55,20.76,3-12.4,14.6-12.4,14.6-18.85,0-2.49-1.91-4.16-4.54-4.16-7.59,0-19.82,17.06-12.9,38.46,4.21-12.84,13.13-18.45,23.42-21.82C480.79-30.8,473-21.11,473.61-9.58c3.68-14.95,26.56-18.53,24.31-40.45,6,14.9.91,26.37-8.69,34.42,21-9.36,13.87-27.26,22.48-43.77,8.12-15.57,25.08-20.55,36.78-20.1-5.68,2.09-12.84,6.33-17.22,22.18-2.9,10.48-4.77,20.25-17,27.14,7.69-12.26,4.54-25.69,14.9-36.73-13.92,9.83-10.5,27.68-21.12,41.7,10.62-3.41,19.68-9.38,23.6-18.63-2.92,15.76-19.71,32.53-49.15,36.55C512.81-6,518.65-22.83,533.93-23.44c9.68-.38,18.14,8.39,28,13.68-12.11-3.07-31.11-11.33-41.16,2.13,0,0,6.19-5.26,18.28-3.72C551.35-9.8,562.54-2,593.2,0c-30.65,2-41.84,9.8-54.12,11.36C527,12.89,520.81,7.63,520.81,7.63c10.06,13.46,29.05,5.2,41.16,2.13-9.9,5.29-18.35,14.06-28,13.68C518.65,22.83,512.81,6,482.48,7.27ZM515.84,0c4.61,1.24,8.63,3.77,14.49,3.77C537.44,3.77,541.4,1,547.07,0c-5.67-1-9.63-3.77-16.74-3.77C524.47-3.77,520.45-1.24,515.84,0ZM443.62-90.31c0,5.12,3,8.4,3,12.12,0-3.73,3-7,3-12.12,0-4.57-2.25-6.65-3-11.44C445.87-97,443.62-94.88,443.62-90.31ZM377.44,0c-4.61-1.24-8.63-3.77-14.49-3.77C355.84-3.77,351.88-1,346.21,0c5.67,1,9.63,3.77,16.74,3.77C368.81,3.77,372.83,1.24,377.44,0Zm72.21,90.31c0-5.12-3-8.4-3-12.12,0,3.72-3,7-3,12.12,0,4.57,2.25,6.65,3,11.43C447.41,97,449.66,94.88,449.66,90.31ZM491.71,0c-9.94,0-24.09-5-35-3a24.67,24.67,0,0,0,7.45-6.74c-4.41.43-6.76.8-10.11,2.31,2.66-6,3.19-9.4,3.72-15.44a31.4,31.4,0,0,0-6.56,10.65C452-24.66,447-27.49,446.64-44c-.36,16.51-5.32,19.34-4.61,31.76a31.34,31.34,0,0,0-6.56-10.65c.53,6,1.06,9.42,3.73,15.44-3.36-1.51-5.71-1.87-10.12-2.31A24.7,24.7,0,0,0,436.53-3c-10.87-2-25,3-35,3,9.94,0,24.09,5,35,3a24.66,24.66,0,0,0-7.45,6.74c4.41-.43,6.76-.79,10.12-2.3-2.66,6-3.2,9.4-3.73,15.44A31.34,31.34,0,0,0,442,12.24c-.71,12.42,4.26,15.25,4.61,31.76.36-16.51,5.32-19.34,4.61-31.76a31.4,31.4,0,0,0,6.56,10.65c-.53-6-1.06-9.42-3.72-15.44,3.36,1.51,5.71,1.87,10.11,2.3A24.63,24.63,0,0,0,456.75,3C467.62,5,481.77,0,491.71,0Z"/><path class="cls-12" d="M365.11,27.17c-4.69,4.6-6.91,12.19-7.27,21.72-.47,12.53-5.41,17.66-13.33,18.53,11.8-4.58,4.44-17.11,7.94-25.85C346,46.36,348.07,62.25,334.82,63c9.78-3.2,2.83-16.68,9.29-24.5-7.81.11-11.4-6.12-21.54-3.23,4.71-3.63,10-5.92,18.85-5.92-6.25-3.86-9-8.62-11.31-15.35C340.24,24.57,355,28.64,365.11,27.17Z"/><path class="cls-6" d="M464.86,0c-4.26-.66-9.39-3.2-14.13-1.22,2.32-1.8,1.14-3.52,2.53-5.2-1.92,1.39-3.51.5-5,2.74,1.54-5.31-.53-8.14-1.63-14.12-1.1,6-3.17,8.81-1.63,14.12-1.47-2.24-3.07-1.36-5-2.74,1.38,1.68.21,3.39,2.53,5.2-4.74-2-9.87.55-14.13,1.22,4.26.67,9.39,3.2,14.13,1.22-2.32,1.8-1.14,3.52-2.53,5.2,1.92-1.39,3.51-.5,5-2.74-1.54,5.31.53,8.14,1.63,14.12,1.1-6,3.17-8.81,1.63-14.12,1.48,2.24,3.07,1.36,5,2.74-1.38-1.68-.21-3.39-2.53-5.2C455.47,3.2,460.6.67,464.86,0Z"/><path class="cls-13" d="M168.44,250.86c2.64-13.83,25.37-16.26,30.29-34.06,3.77,19.12,21.29,19.87,21.54,33.12-3.18-7.8-10.84-5.79-15.88-12.12.85,6.15,4.63,11.89,12.38,15.08-7.67,1.08-15.63-1.83-19.12-9.56-2.56,4.17-2.81,8.45-.67,13.87a15.19,15.19,0,0,1-5.65-16.56C184.06,247.89,173.42,243.86,168.44,250.86Z"/><path class="cls-14" d="M278.2,250.86c-2.64-13.83-25.37-16.26-30.29-34.06-3.77,19.12-21.29,19.87-21.54,33.12,3.18-7.8,10.84-5.79,15.88-12.12-.85,6.15-4.63,11.89-12.38,15.08C237.54,254,245.5,251,249,243.32c2.56,4.17,2.81,8.45.67,13.87a15.19,15.19,0,0,0,5.65-16.56C262.58,247.89,273.22,243.86,278.2,250.86Z"/><path class="cls-15" d="M304.85,102.42c4.69-4.6,6.91-12.18,7.27-21.72.47-12.53,5.41-17.66,13.33-18.53C313.65,66.75,321,79.29,317.5,88c6.44-4.79,4.38-20.68,17.63-21.4-9.78,3.2-2.84,16.68-9.29,24.5,7.81-.11,11.4,6.13,21.54,3.23-4.72,3.64-10,5.92-18.85,5.92,6.25,3.86,9,8.63,11.31,15.35C329.72,105,315,101,304.85,102.42Z"/><path class="cls-2" d="M155.52,61.1A32.84,32.84,0,0,1,167,83.85c1.08-10.23,3.2-18.13,8.21-24,0,0-6.33,3.1-8.62,9.15C163.6,63.79,155.52,61.1,155.52,61.1Z"/><path class="cls-2" d="M141.52,10.21c1.22,6,6.31,11.18,12.92,13.73A21.14,21.14,0,0,1,156.6,4.15a21.46,21.46,0,0,0,5.79,18,18.18,18.18,0,0,1,1.08-13.87c-.94,8.48,6.17,12.79,15.62,18.44,12.66,7.58,17.28,16,19.25,27.23-3.45-6.87-9.9-13.14-27.86-17.29C148.17,31.54,140.07,24.29,141.52,10.21Z"/><path class="cls-16" d="M141.79,102.42c-4.69-4.6-6.91-12.18-7.27-21.72C134,68.17,129.11,63,121.19,62.17c11.8,4.58,4.44,17.12,7.94,25.85-6.44-4.79-4.38-20.68-17.63-21.4,9.78,3.2,2.83,16.68,9.29,24.5-7.81-.11-11.4,6.13-21.54,3.23,4.71,3.64,10,5.92,18.85,5.92-6.25,3.86-9,8.63-11.31,15.35C116.92,105,131.64,101,141.79,102.42Z"/><path class="cls-2" d="M291.12,61.1a32.84,32.84,0,0,0-11.44,22.75c-1.08-10.23-3.2-18.13-8.21-24,0,0,6.33,3.1,8.62,9.15C283,63.79,291.12,61.1,291.12,61.1Z"/><path class="cls-2" d="M305.12,10.21c-1.22,6-6.31,11.18-12.92,13.73A21.15,21.15,0,0,0,290,4.15a21.45,21.45,0,0,1-5.79,18,18.18,18.18,0,0,0-1.08-13.87c.94,8.48-6.17,12.79-15.62,18.44-12.66,7.58-17.28,16-19.25,27.23,3.45-6.87,9.9-13.14,27.86-17.29C298.47,31.54,306.57,24.29,305.12,10.21Z"/><path class="cls-17" d="M278.2,8.33c-2.64,13.83-25.37,16.26-30.29,34.06-3.77-19.12-21.29-19.87-21.54-33.11,3.18,7.8,10.84,5.79,15.88,12.12-.85-6.15-4.63-11.89-12.38-15.08,7.67-1.08,15.62,1.83,19.12,9.56,2.56-4.17,2.81-8.45.67-13.87a15.19,15.19,0,0,1,5.65,16.56C262.58,11.29,273.22,15.33,278.2,8.33Z"/><path class="cls-2" d="M155.52,198.09A32.84,32.84,0,0,0,167,175.34c1.08,10.23,3.2,18.14,8.21,24,0,0-6.33-3.1-8.62-9.15C163.6,195.4,155.52,198.09,155.52,198.09Z"/><path class="cls-2" d="M141.52,249c1.22-6,6.31-11.18,12.92-13.73A21.14,21.14,0,0,0,156.6,255a21.46,21.46,0,0,1,5.79-18,18.18,18.18,0,0,0,1.08,13.87c-.94-8.48,6.17-12.79,15.62-18.44,12.66-7.58,17.28-16,19.25-27.23-3.45,6.87-9.9,13.14-27.86,17.29C148.17,227.64,140.07,234.9,141.52,249Z"/><path class="cls-18" d="M259.16,136.87c29.44,4,46.23,20.79,49.15,36.55-3.92-9.25-13-15.22-23.6-18.63,10.62,14,7.19,31.87,21.12,41.7-10.37-11-7.21-24.46-14.9-36.73,12.26,6.9,14.12,16.67,17,27.15,4.38,15.84,11.54,20.09,17.22,22.18-11.7.45-28.66-4.53-36.78-20.1-8.61-16.51-1.45-34.41-22.48-43.77,9.6,8.06,14.73,19.52,8.69,34.42,2.26-21.92-20.63-25.5-24.31-40.45-.63,11.53,7.18,21.22,14.55,25.9-10.29-3.37-19.21-9-23.42-21.82-6.92,21.39,5.31,38.46,12.9,38.46,2.63,0,4.54-1.67,4.54-4.16,0-6.45-11.64-6.45-14.6-18.85,5.32,10.82,25.55,8.87,25.55,20.76,0,9.74-13.64,14-22.36,8,6.39,8.34,21.26,8.62,25.55-1.42.66,4.31-1.31,10.76-7.45,13.13-7,2.7-13.48-2.48-13.48-2.48,7.64,11,20.94,3.67,34.07,3.9,10.87.19,18.11,5.82,21.29,11.18a15.2,15.2,0,0,0-7.63-2,21.14,21.14,0,0,1,9,21.47c-1.3-6.25-8.57-10.68-22.36-11.63-15.56-1.08-23.81-3.57-29.1-9.3,11.2,5,28.94-1.91,41,6-7.45-8.54-23.93-6.09-35.71-8C242,205.05,229.33,170.09,231,154.74c-5.66,23.42,9.46,36.2,12.79,49.13,3.63,14.13-3.37,23.83-9.95,28.8,10.28-15.4-7.42-24.63-4.61-44.36-5.23,19.19,4.44,24.66,4.44,34.6,0,9.76-8.58,13-10.29,25.55C221.61,235.91,213,232.68,213,222.92c0-9.94,9.66-15.41,4.44-34.6,2.8,19.73-14.89,29-4.61,44.36-6.58-5-13.58-14.67-9.95-28.8,3.32-12.93,18.44-25.71,12.79-49.13,1.62,15.35-11,50.31-31.71,53.63-11.78,1.89-28.26-.56-35.72,8,12-7.94,29.78-1.08,41-6-5.29,5.73-13.54,8.23-29.1,9.3-13.79,1-21.06,5.38-22.36,11.63a21.13,21.13,0,0,1,9-21.47,15.2,15.2,0,0,0-7.63,2c3.19-5.36,10.42-11,21.29-11.18,13.13-.23,26.42,7.11,34.07-3.9,0,0-6.5,5.18-13.48,2.48-6.15-2.37-8.12-8.82-7.45-13.13,4.29,10,19.16,9.76,25.55,1.42-8.72,6.05-22.36,1.75-22.36-8,0-11.89,20.23-9.94,25.55-20.76-3,12.41-14.6,12.41-14.6,18.85,0,2.49,1.91,4.16,4.54,4.16,7.58,0,19.82-17.06,12.9-38.46-4.2,12.83-13.13,18.45-23.42,21.82,7.37-4.68,15.18-14.37,14.55-25.9-3.68,14.95-26.56,18.53-24.31,40.45-6-14.9-.91-26.37,8.7-34.42-21,9.36-13.87,27.26-22.48,43.77-8.12,15.57-25.08,20.55-36.78,20.1,5.67-2.09,12.84-6.33,17.22-22.18,2.9-10.48,4.77-20.25,17-27.15-7.69,12.27-4.54,25.69-14.9,36.73,13.92-9.83,10.5-27.68,21.11-41.7-10.62,3.41-19.68,9.38-23.6,18.63,2.91-15.76,19.71-32.53,49.15-36.55C157.15,135.58,151.31,152.42,136,153c-9.68.38-18.14-8.39-28-13.68,12.11,3.07,31.11,11.33,41.16-2.13,0,0-6.19,5.26-18.28,3.73-12.27-1.56-23.46-9.4-54.12-11.36,30.65-2,41.84-9.8,54.12-11.36C143,116.7,149.15,122,149.15,122c-10.06-13.46-29.05-5.2-41.16-2.13,9.9-5.29,18.35-14.06,28-13.68,15.28.61,21.13,17.45,51.46,16.16-29.44-4-46.23-20.79-49.15-36.55,3.92,9.25,13,15.22,23.6,18.63-10.62-14-7.19-31.87-21.11-41.7,10.37,11,7.21,24.46,14.9,36.73-12.26-6.89-14.13-16.67-17-27.15-4.38-15.85-11.55-20.09-17.22-22.18,11.7-.45,28.66,4.53,36.78,20.1,8.61,16.51,1.45,34.41,22.48,43.77-9.6-8.06-14.73-19.52-8.7-34.42-2.25,21.92,20.63,25.5,24.31,40.45.63-11.53-7.18-21.22-14.55-25.9,10.29,3.37,19.22,9,23.42,21.82,6.93-21.39-5.31-38.46-12.9-38.46-2.63,0-4.54,1.67-4.54,4.16,0,6.45,11.64,6.45,14.6,18.85-5.32-10.82-25.55-8.87-25.55-20.76,0-9.74,13.64-14,22.36-8-6.39-8.34-21.26-8.62-25.55,1.42-.66-4.31,1.31-10.76,7.45-13.13,7-2.7,13.48,2.48,13.48,2.48-7.64-11-20.94-3.67-34.07-3.9-10.87-.19-18.11-5.82-21.29-11.18a15.23,15.23,0,0,0,7.63,2,21.14,21.14,0,0,1-9-21.47c1.3,6.25,8.57,10.68,22.36,11.63,15.56,1.08,23.81,3.57,29.1,9.3-11.2-5-28.94,1.91-41-6,7.45,8.54,23.93,6.09,35.72,8,20.71,3.32,33.32,38.29,31.71,53.63,5.65-23.42-9.46-36.2-12.79-49.13-3.63-14.13,3.37-23.83,9.95-28.8-10.28,15.4,7.42,24.63,4.61,44.36C222.69,51.67,213,46.2,213,36.26c0-9.76,8.59-13,10.29-25.55,1.71,12.55,10.29,15.79,10.29,25.55,0,9.94-9.66,15.41-4.44,34.6-2.8-19.73,14.89-29,4.61-44.36,6.58,5,13.58,14.67,9.95,28.8C240.41,68.24,225.29,81,231,104.44c-1.62-15.35,11-50.31,31.71-53.63,11.78-1.89,28.26.56,35.71-8-12.05,7.94-29.79,1.07-41,6,5.29-5.74,13.54-8.23,29.1-9.3,13.78-1,21.06-5.38,22.36-11.63a21.14,21.14,0,0,1-9,21.47,15.23,15.23,0,0,0,7.63-2c-3.19,5.36-10.42,11-21.29,11.18-13.13.23-26.43-7.11-34.07,3.9,0,0,6.5-5.18,13.48-2.48,6.14,2.37,8.12,8.82,7.45,13.13-4.29-10-19.16-9.76-25.55-1.42,8.72-6.05,22.36-1.75,22.36,8,0,11.89-20.23,9.94-25.55,20.76,3-12.4,14.6-12.4,14.6-18.85,0-2.49-1.91-4.16-4.54-4.16-7.59,0-19.82,17.06-12.9,38.46,4.21-12.83,13.13-18.45,23.42-21.82-7.37,4.68-15.18,14.37-14.55,25.9,3.68-14.95,26.56-18.53,24.31-40.45,6,14.9.91,26.37-8.69,34.42,21-9.36,13.87-27.26,22.48-43.77,8.12-15.57,25.08-20.55,36.78-20.1-5.68,2.09-12.84,6.33-17.22,22.18-2.9,10.48-4.77,20.25-17,27.15,7.69-12.26,4.54-25.69,14.9-36.73-13.92,9.83-10.5,27.68-21.12,41.7,10.62-3.41,19.68-9.38,23.6-18.63-2.92,15.76-19.71,32.53-49.15,36.55,30.33,1.29,36.17-15.55,51.45-16.16,9.68-.38,18.14,8.39,28,13.68-12.11-3.07-31.11-11.33-41.16,2.13,0,0,6.19-5.26,18.28-3.72,12.27,1.56,23.46,9.4,54.12,11.36-30.65,2-41.84,9.8-54.12,11.36-12.08,1.53-18.28-3.73-18.28-3.73,10.06,13.46,29.05,5.2,41.16,2.13-9.9,5.29-18.35,14.06-28,13.68C295.33,152.42,289.49,135.58,259.16,136.87Zm33.36-7.27c4.61,1.24,8.63,3.77,14.49,3.77,7.11,0,11.07-2.75,16.74-3.77-5.67-1-9.63-3.77-16.74-3.77C301.15,125.82,297.13,128.35,292.52,129.59ZM220.3,39.28c0,5.12,3,8.4,3,12.12,0-3.73,3-7,3-12.12,0-4.57-2.25-6.65-3-11.43C222.55,32.63,220.3,34.71,220.3,39.28Zm-66.18,90.31c-4.61-1.24-8.63-3.77-14.49-3.77-7.11,0-11.07,2.75-16.74,3.77,5.67,1,9.63,3.77,16.74,3.77C145.49,133.36,149.51,130.83,154.12,129.59Zm72.21,90.31c0-5.12-3-8.4-3-12.12,0,3.72-3,7-3,12.12,0,4.57,2.25,6.65,3,11.43C224.09,226.56,226.34,224.47,226.34,219.9Zm42.05-90.31c-9.94,0-24.09-5-35-3a24.68,24.68,0,0,0,7.45-6.74c-4.41.43-6.76.8-10.11,2.31,2.66-6,3.19-9.4,3.72-15.44a31.39,31.39,0,0,0-6.56,10.65c.71-12.42-4.26-15.25-4.61-31.76-.36,16.51-5.32,19.34-4.61,31.76a31.34,31.34,0,0,0-6.56-10.65c.53,6,1.06,9.42,3.73,15.44-3.36-1.51-5.71-1.87-10.12-2.31a24.72,24.72,0,0,0,7.45,6.74c-10.87-2-25,3-35,3,9.94,0,24.09,5,35,3a24.67,24.67,0,0,0-7.45,6.74c4.41-.43,6.76-.8,10.12-2.31-2.66,6-3.2,9.4-3.73,15.44a31.35,31.35,0,0,0,6.56-10.65c-.71,12.42,4.26,15.25,4.61,31.76.36-16.51,5.32-19.34,4.61-31.76a31.4,31.4,0,0,0,6.56,10.65c-.53-6-1.06-9.42-3.72-15.44,3.36,1.51,5.71,1.87,10.11,2.31a24.64,24.64,0,0,0-7.45-6.74C244.3,134.57,258.45,129.59,268.39,129.59Z"/><path class="cls-2" d="M291.12,198.09a32.84,32.84,0,0,1-11.44-22.75c-1.08,10.23-3.2,18.14-8.21,24,0,0,6.33-3.1,8.62-9.15C283,195.4,291.12,198.09,291.12,198.09Z"/><path class="cls-2" d="M305.12,249c-1.22-6-6.31-11.18-12.92-13.73A21.14,21.14,0,0,1,290,255a21.45,21.45,0,0,0-5.79-18,18.18,18.18,0,0,1-1.08,13.87c.94-8.48-6.17-12.79-15.62-18.44-12.66-7.58-17.28-16-19.25-27.23,3.45,6.87,9.9,13.14,27.86,17.29C298.47,227.64,306.57,234.9,305.12,249Z"/><path class="cls-19" d="M304.85,156.76c4.69,4.6,6.91,12.19,7.27,21.72.47,12.53,5.41,17.66,13.33,18.53-11.8-4.58-4.44-17.11-7.94-25.85,6.44,4.79,4.38,20.68,17.63,21.4-9.78-3.2-2.84-16.67-9.29-24.5,7.81.11,11.4-6.12,21.54-3.23-4.72-3.63-10-5.92-18.85-5.92,6.25-3.86,9-8.62,11.31-15.35C329.72,154.16,315,158.24,304.85,156.76Z"/><path class="cls-20" d="M141.79,156.76c-4.69,4.6-6.91,12.19-7.27,21.72C134,191,129.11,196.14,121.19,197c11.8-4.58,4.44-17.11,7.94-25.85-6.44,4.79-4.38,20.68-17.63,21.4,9.78-3.2,2.83-16.67,9.29-24.5-7.81.11-11.4-6.12-21.54-3.23,4.71-3.63,10-5.92,18.85-5.92-6.25-3.86-9-8.62-11.31-15.35C116.92,154.16,131.64,158.24,141.79,156.76Z"/><path class="cls-21" d="M168.44,8.33c2.64,13.83,25.37,16.26,30.29,34.06C202.5,23.27,220,22.51,220.27,9.27c-3.18,7.8-10.84,5.79-15.88,12.12.85-6.15,4.63-11.89,12.38-15.08-7.67-1.08-15.63,1.83-19.12,9.56C195.09,11.69,194.84,7.42,197,2a15.19,15.19,0,0,0-5.65,16.56C184.06,11.29,173.42,15.33,168.44,8.33Z"/><path class="cls-6" d="M241.54,129.59c-4.26-.66-9.39-3.2-14.13-1.22,2.32-1.8,1.14-3.51,2.53-5.2-1.92,1.39-3.51.5-5,2.75,1.54-5.31-.53-8.14-1.63-14.12-1.1,6-3.17,8.81-1.63,14.12-1.47-2.24-3.07-1.36-5-2.75,1.38,1.68.21,3.39,2.53,5.2-4.74-2-9.87.56-14.13,1.22,4.26.67,9.39,3.2,14.13,1.22-2.32,1.8-1.14,3.52-2.53,5.2,1.92-1.39,3.51-.5,5-2.74-1.54,5.31.53,8.14,1.63,14.12,1.1-6,3.17-8.81,1.63-14.12,1.48,2.24,3.07,1.36,5,2.74-1.38-1.68-.21-3.39-2.53-5.2C232.15,132.79,237.28,130.26,241.54,129.59Z"/><path class="cls-22" d="M54.88,121.26C52.24,107.43,29.51,105,24.59,87.21c-3.77,19.12-21.29,19.87-21.54,33.12,3.18-7.8,10.84-5.79,15.88-12.12-.85,6.15-4.63,11.89-12.38,15.08,7.67,1.08,15.62-1.83,19.12-9.56,2.56,4.17,2.81,8.45.67,13.87A15.19,15.19,0,0,0,32,111C39.26,118.3,49.9,114.26,54.88,121.26Z"/><path class="cls-23" d="M35.84,7.27C65.28,11.3,82.07,28.06,85,43.83c-3.92-9.25-13-15.22-23.6-18.63,10.62,14,7.19,31.87,21.12,41.7-10.37-11-7.21-24.46-14.9-36.73,12.26,6.9,14.12,16.67,17,27.15C89,73.15,96.17,77.4,101.84,79.49c-11.7.45-28.66-4.53-36.78-20.1C56.45,42.88,63.61,25,42.58,15.61c9.6,8.06,14.73,19.52,8.69,34.42C53.53,28.11,30.65,24.53,27,9.58c-.63,11.53,7.18,21.22,14.55,25.9-10.29-3.37-19.21-9-23.42-21.82C11.17,35.05,23.41,52.12,31,52.12c2.63,0,4.54-1.67,4.54-4.16,0-6.45-11.64-6.45-14.6-18.86C26.26,39.92,46.49,38,46.49,49.86c0,9.74-13.64,14-22.36,8,6.39,8.34,21.26,8.62,25.55-1.42.66,4.31-1.31,10.76-7.45,13.13-7,2.7-13.48-2.48-13.48-2.48,7.64,11,20.94,3.67,34.07,3.9,10.87.19,18.11,5.82,21.29,11.18a15.19,15.19,0,0,0-7.63-2,21.13,21.13,0,0,1,9,21.47C84.22,95.42,76.95,91,63.17,90c-15.56-1.08-23.81-3.57-29.1-9.3,11.2,5,28.94-1.91,41,6-7.45-8.54-23.93-6.09-35.71-8C18.63,75.46,6,40.5,7.63,25.15,2,48.57,17.09,61.35,20.42,74.28c3.63,14.13-3.37,23.83-9.95,28.8,10.28-15.4-7.42-24.63-4.61-44.36-5.23,19.19,4.44,24.66,4.44,34.6,0,9.76-8.58,13-10.29,25.55-1.7-12.55-10.29-15.79-10.29-25.55,0-9.94,9.66-15.41,4.44-34.6,2.8,19.73-14.89,29-4.61,44.36-6.58-5-13.58-14.67-9.95-28.8C-17.09,61.35-2,48.57-7.63,25.15-6,40.5-18.63,75.46-39.34,78.78c-11.78,1.89-28.26-.56-35.72,8,12-7.94,29.78-1.08,41-6C-39.36,86.46-47.61,89-63.16,90-77,91-84.22,95.42-85.52,101.67a21.13,21.13,0,0,1,9-21.47,15.19,15.19,0,0,0-7.63,2c3.19-5.36,10.42-11,21.29-11.18,13.13-.23,26.42,7.11,34.07-3.9,0,0-6.5,5.18-13.48,2.48-6.15-2.37-8.12-8.82-7.45-13.13,4.29,10,19.16,9.76,25.55,1.42-8.72,6.05-22.36,1.75-22.36-8,0-11.89,20.23-9.94,25.55-20.76-3,12.41-14.6,12.41-14.6,18.86,0,2.49,1.91,4.16,4.54,4.16,7.58,0,19.82-17.06,12.9-38.46C-22.3,26.5-31.23,32.11-41.52,35.49-34.15,30.8-26.34,21.11-27,9.58-30.65,24.53-53.53,28.11-51.28,50c-6-14.9-.91-26.37,8.7-34.42-21,9.37-13.87,27.26-22.48,43.77C-73.19,75-90.15,79.94-101.85,79.49-96.17,77.4-89,73.15-84.62,57.31c2.9-10.48,4.77-20.25,17-27.15-7.69,12.27-4.54,25.69-14.9,36.73,13.92-9.83,10.5-27.68,21.11-41.7C-72,28.6-81.07,34.57-85,43.83-82.08,28.06-65.28,11.3-35.84,7.27-66.17,6-72,22.83-87.3,23.44c-9.68.38-18.14-8.39-28-13.68,12.11,3.07,31.11,11.33,41.16-2.13,0,0-6.19,5.26-18.28,3.73C-104.71,9.8-115.9,2-146.56,0c30.65-2,41.84-9.8,54.12-11.36,12.08-1.54,18.28,3.72,18.28,3.72-10.06-13.46-29.05-5.2-41.16-2.13,9.9-5.29,18.35-14.06,28-13.68C-72-22.83-66.17-6-35.84-7.28-65.28-11.3-82.08-28.07-85-43.82c3.92,9.25,13,15.22,23.6,18.63-10.62-14-7.19-31.87-21.11-41.7,10.37,11,7.21,24.46,14.9,36.73-12.26-6.89-14.13-16.67-17-27.14C-89-73.16-96.17-77.4-101.85-79.49c11.7-.45,28.66,4.53,36.78,20.1C-56.45-42.87-63.62-25-42.58-15.62c-9.6-8.05-14.73-19.52-8.7-34.42C-53.53-28.11-30.65-24.53-27-9.58c.63-11.53-7.18-21.22-14.55-25.9,10.29,3.37,19.22,9,23.42,21.82,6.93-21.39-5.31-38.46-12.9-38.46-2.63,0-4.54,1.67-4.54,4.16,0,6.45,11.64,6.45,14.6,18.85C-26.26-39.92-46.49-38-46.49-49.86c0-9.74,13.64-14,22.36-8-6.39-8.34-21.26-8.62-25.55,1.42-.66-4.31,1.31-10.76,7.45-13.13,7-2.7,13.48,2.48,13.48,2.48-7.64-11-20.94-3.67-34.07-3.9-10.87-.19-18.11-5.82-21.29-11.18a15.23,15.23,0,0,0,7.63,2,21.14,21.14,0,0,1-9-21.47C-84.22-95.42-77-91-63.16-90c15.56,1.08,23.81,3.57,29.1,9.3-11.2-5-28.94,1.91-41-6,7.45,8.54,23.93,6.09,35.72,8C-18.63-75.46-6-40.5-7.63-25.15-2-48.57-17.09-61.35-20.42-74.29c-3.63-14.13,3.37-23.83,9.95-28.8-10.28,15.4,7.42,24.63,4.61,44.36,5.23-19.19-4.44-24.66-4.44-34.6,0-9.76,8.59-13,10.29-25.55,1.71,12.55,10.29,15.79,10.29,25.55,0,9.94-9.66,15.41-4.44,34.6-2.8-19.73,14.89-29,4.61-44.36,6.58,5,13.58,14.67,9.95,28.8C17.09-61.35,2-48.57,7.63-25.15,6-40.5,18.63-75.46,39.34-78.78c11.78-1.89,28.26.56,35.71-8-12.05,7.94-29.79,1.07-41,6C39.36-86.46,47.61-89,63.17-90c13.78-1,21.06-5.38,22.36-11.63a21.14,21.14,0,0,1-9,21.47,15.23,15.23,0,0,0,7.63-2c-3.19,5.36-10.42,11-21.29,11.18-13.13.23-26.43-7.11-34.07,3.9,0,0,6.5-5.18,13.48-2.48,6.14,2.37,8.12,8.82,7.45,13.13-4.29-10-19.16-9.76-25.55-1.42,8.72-6.05,22.36-1.75,22.36,8,0,11.89-20.23,9.94-25.55,20.76,3-12.4,14.6-12.4,14.6-18.85,0-2.49-1.91-4.16-4.54-4.16-7.59,0-19.82,17.06-12.9,38.46C22.3-26.5,31.23-32.12,41.52-35.49,34.15-30.8,26.34-21.11,27-9.58,30.65-24.53,53.53-28.11,51.28-50c6,14.9.91,26.37-8.69,34.42,21-9.36,13.87-27.26,22.48-43.77C73.18-75,90.15-79.94,101.84-79.49,96.17-77.4,89-73.16,84.62-57.31c-2.9,10.48-4.77,20.25-17,27.14,7.69-12.26,4.54-25.69,14.9-36.73C68.58-57.06,72-39.21,61.39-25.2,72-28.6,81.07-34.58,85-43.82,82.07-28.07,65.28-11.3,35.84-7.28,66.17-6,72-22.83,87.29-23.44c9.68-.38,18.14,8.39,28,13.68-12.11-3.07-31.11-11.33-41.16,2.13,0,0,6.19-5.26,18.28-3.72C104.71-9.8,115.9-2,146.56,0,115.9,2,104.71,9.8,92.44,11.36,80.36,12.89,74.17,7.63,74.17,7.63c10.06,13.46,29.05,5.2,41.16,2.13C105.43,15,97,23.82,87.29,23.44,72,22.83,66.17,6,35.84,7.27ZM69.2,0c4.61,1.24,8.63,3.77,14.49,3.77C90.8,3.77,94.76,1,100.42,0,94.76-1,90.8-3.77,83.68-3.77,77.83-3.77,73.81-1.24,69.2,0ZM-3-90.31c0,5.12,3,8.4,3,12.12,0-3.73,3-7,3-12.12C3-94.88.77-97,0-101.75-.77-97-3-94.88-3-90.31ZM-69.2,0c-4.61-1.24-8.63-3.77-14.49-3.77C-90.8-3.77-94.76-1-100.43,0c5.67,1,9.63,3.77,16.74,3.77C-77.83,3.77-73.81,1.24-69.2,0ZM3,90.31c0-5.12-3-8.4-3-12.12,0,3.72-3,7-3,12.12C-3,94.88-.77,97,0,101.74.77,97,3,94.88,3,90.31ZM45.07,0C35.13,0,21-5,10.11-3a24.67,24.67,0,0,0,7.45-6.74c-4.41.43-6.76.8-10.11,2.31,2.66-6,3.19-9.4,3.72-15.44A31.4,31.4,0,0,0,4.61-12.24C5.32-24.66.35-27.49,0-44-.36-27.49-5.32-24.66-4.61-12.24a31.34,31.34,0,0,0-6.56-10.65c.53,6,1.06,9.42,3.73,15.44C-10.81-9-13.16-9.33-17.57-9.76A24.7,24.7,0,0,0-10.11-3c-10.87-2-25,3-35,3,9.94,0,24.09,5,35,3a24.66,24.66,0,0,0-7.45,6.74c4.41-.43,6.76-.79,10.12-2.3-2.66,6-3.2,9.4-3.73,15.44A31.34,31.34,0,0,0-4.61,12.24C-5.32,24.66-.36,27.49,0,44,.35,27.49,5.32,24.66,4.61,12.24a31.4,31.4,0,0,0,6.56,10.65c-.53-6-1.06-9.42-3.72-15.44C10.81,9,13.16,9.33,17.57,9.76A24.63,24.63,0,0,0,10.11,3C21,5,35.13,0,45.07,0Z"/><path class="cls-2" d="M67.8,68.5A32.84,32.84,0,0,1,56.36,45.75c-1.08,10.23-3.2,18.13-8.21,24,0,0,6.33-3.1,8.62-9.15C59.72,65.8,67.8,68.5,67.8,68.5Z"/><path class="cls-2" d="M81.8,119.38c-1.22-6-6.31-11.18-12.92-13.73a21.14,21.14,0,0,1-2.15,19.79,21.45,21.45,0,0,0-5.79-18,18.18,18.18,0,0,1-1.08,13.87c.94-8.48-6.17-12.79-15.62-18.44C31.58,95.24,27,86.78,25,75.6c3.45,6.87,9.9,13.14,27.86,17.29C75.15,98,83.25,105.3,81.8,119.38Z"/><path class="cls-24" d="M81.53,27.17c4.69,4.6,6.91,12.19,7.27,21.72.47,12.53,5.41,17.66,13.33,18.53-11.8-4.58-4.44-17.11-7.94-25.85,6.44,4.79,4.38,20.68,17.63,21.4-9.78-3.2-2.84-16.68-9.29-24.5,7.81.11,11.4-6.12,21.54-3.23-4.72-3.63-10-5.92-18.85-5.92,6.25-3.86,9-8.62,11.31-15.35C106.4,24.57,91.68,28.64,81.53,27.17Z"/><path class="cls-6" d="M18.22,0C14-.66,8.83-3.2,4.09-1.22,6.41-3,5.23-4.73,6.62-6.42c-1.92,1.39-3.51.5-5,2.74C3.17-9,1.1-11.81,0-17.79-1.1-11.81-3.17-9-1.63-3.67-3.11-5.91-4.7-5-6.62-6.42c1.38,1.68.2,3.39,2.53,5.2C-8.83-3.2-14-.66-18.22,0-14,.67-8.83,3.2-4.09,1.22-6.41,3-5.23,4.73-6.62,6.42c1.92-1.39,3.51-.5,5-2.74C-3.17,9-1.1,11.81,0,17.79,1.1,11.81,3.17,9,1.63,3.67,3.11,5.92,4.7,5,6.62,6.42,5.23,4.73,6.41,3,4.09,1.22,8.83,3.2,14,.67,18.22,0Z"/></pattern></defs><title>alexaops</title><path id="right" class="cls-25" d="M114.7,15.24a120.27,120.27,0,0,0-1-15.2h6a126.1,126.1,0,0,1,.92,15.2,125.89,125.89,0,0,1-.94,15.37q-2.85-1.21-5.78-2.28A120.4,120.4,0,0,0,114.7,15.24Zm-33.3,85.5a116.2,116.2,0,0,1-8.61,7.83q1.55,1.23,3.14,2.4a124.71,124.71,0,0,0,42.92-74.26q-1.83-.81-3.69-1.54A120.1,120.1,0,0,1,81.4,100.74ZM66.26,111A118,118,0,0,1,0,134v6a124.18,124.18,0,0,0,71.1-25.14Q68.63,113,66.26,111ZM79.9,99.24q-4.23,4.23-8.8,8c.56.46,1.13.91,1.69,1.36a116.2,116.2,0,0,0,8.61-7.83,120.1,120.1,0,0,0,33.76-65.57l-2-.78A118.09,118.09,0,0,1,79.9,99.24Z"/><path id="left" class="cls-26" d="M75.94,111A117.91,117.91,0,0,0,140,133.87v6a124.16,124.16,0,0,1-68.9-25.06Q73.57,113,75.94,111ZM60.8,100.74A120.1,120.1,0,0,1,27,35.16q-1.86.74-3.69,1.54A124.71,124.71,0,0,0,66.26,111q1.6-1.18,3.16-2.42C66.44,106.05,63.58,103.44,60.8,100.74ZM22.44,30.59q2.85-1.21,5.78-2.28A119.72,119.72,0,0,1,28.47,0h-6a125.54,125.54,0,0,0,0,30.55Zm47,78c.56-.44,1.12-.89,1.67-1.34q-4.57-3.75-8.8-8A118.09,118.09,0,0,1,29,34.39l-2,.78A120.1,120.1,0,0,0,60.8,100.74C63.58,103.44,66.44,106.05,69.43,108.55Zm1.67,1.39c-.56-.45-1.12-.92-1.67-1.39q-1.57,1.24-3.16,2.42,2.37,2,4.84,3.85Q73.57,113,75.94,111q-1.59-1.17-3.14-2.4C72.23,109,71.67,109.49,71.1,109.94Zm-1.67-1.39c.56.46,1.11.93,1.67,1.39.57-.44,1.13-.91,1.69-1.37-.57-.45-1.13-.9-1.69-1.36C70.55,107.66,70,108.11,69.43,108.55Z"/><path id="top" class="cls-27" d="M119.76,30.6A124.52,124.52,0,0,1,140,41.52v7.23a118,118,0,0,0-21.15-12Q119.38,33.68,119.76,30.6Zm-97.32,0A124.58,124.58,0,0,0,0,43v7.37A118,118,0,0,1,23.35,36.71Q22.82,33.67,22.44,30.59ZM71.1,24.74a120.54,120.54,0,0,1,42.37,7.63q.29-2,.51-4a125.16,125.16,0,0,0-85.76,0q.22,2,.51,4.06A120.79,120.79,0,0,1,71.1,24.74Zm0,2a118.74,118.74,0,0,1,42.06,7.65c.11-.67.22-1.35.31-2a121.51,121.51,0,0,0-84.75,0c.1.67.2,1.35.31,2A118.74,118.74,0,0,1,71.1,26.74Zm44.4,6.4c-.1.68-.23,1.35-.34,2q1.86.74,3.69,1.54.53-3,.91-6.11-2.85-1.21-5.78-2.28-.22,2-.51,4Zm-.34,2c.11-.68.24-1.35.34-2l-2-.77c-.1.68-.2,1.35-.31,2ZM23.35,36.71q1.83-.81,3.69-1.54c-.11-.68-.24-1.35-.34-2l2-.77q-.29-2-.51-4.06-2.92,1.07-5.78,2.28Q22.82,33.67,23.35,36.71Zm5.38-4.34-2,.77c.1.68.23,1.35.34,2l2-.78C28.93,33.71,28.83,33,28.73,32.37Z"/><path id="inner" class="cls-28" d="M113.16,34.39a119.45,119.45,0,0,0-84.12,0A118.09,118.09,0,0,0,62.3,99.24q4.23,4.23,8.8,8,4.57-3.75,8.8-8A118.09,118.09,0,0,0,113.16,34.39Z"/><g id="brows"><path id="brow-right" class="cls-29" d="M102.8,42.38c-1.39-.77-2.76-1.54-4.14-2.26a8.31,8.31,0,0,0-5.82-.79,35.85,35.85,0,0,0-9.66,4C82,44,82,45,80.49,44.84c-.08,0-.75-.14-1.16-.25a3.87,3.87,0,0,1-1.83-1.39c-.74-1-1.4-2.15-2.11-3.21a3.06,3.06,0,0,0-.52-.49l-.2.15c.29.51.55,1,.88,1.52.91,1.37,1.52,2.93,2.85,4a2.74,2.74,0,0,0,3,.5c1.82-.77,3.57-1.68,5.39-2.45,2.16-.92,4.35-1.77,6.54-2.6a5.17,5.17,0,0,1,4.14.11c1.68.79,3.31,1.66,4.94,2.55A2.32,2.32,0,0,1,102.8,42.38Z"/><path id="brow-left" class="cls-29" d="M65.65,40.43a4.5,4.5,0,0,1-1.29,3.17,8.9,8.9,0,0,1-.79.67,4.17,4.17,0,0,1-3.95-.08c-2.07-1.37-4.11-2.78-6.22-4.1a13.5,13.5,0,0,0-10.69-1.65,13.21,13.21,0,0,0-2.91,1.3,3.52,3.52,0,0,1-2.75.38s0-.12.06-.13c2.19-1,4.37-2.09,6.57-3.08a6.89,6.89,0,0,1,5.74.15c4.62,1.95,8.78,3.81,13.41,5.76a1.63,1.63,0,0,0,1.61-.33c.3-.73.67-1.43,1-2.14Z"/></g><g id="hair"><path id="_3" data-name="3" class="cls-30" d="M71.1,18.11a118.52,118.52,0,0,1,42,7.63q.29-2,.5-4a123,123,0,0,0-85,0q.22,2,.51,4.06A118.77,118.77,0,0,1,71.1,18.11Z"/><path id="_2" data-name="2" class="cls-30" d="M71.1,10.63a115.91,115.91,0,0,1,41.5,7.63q.28-2,.5-4a120.22,120.22,0,0,0-84,0q.22,2,.5,4.06A116.14,116.14,0,0,1,71.1,10.63Z"/><path id="_1" data-name="1" class="cls-30" d="M71.1,4.15a113.32,113.32,0,0,1,41,7.63q.28-2,.49-4a117.47,117.47,0,0,0-83,0q.22,2,.49,4.06A113.55,113.55,0,0,1,71.1,4.15Z"/></g><g id="ops"><path class="cls-31" d="M89.23,55c-4.11-.59-8.78.39-10,5a8.35,8.35,0,0,0,1.11,6.18,50.17,50.17,0,0,0,2.85,4.49c.48.71,1.06,1.2,1,2.12-.2,1.75-2.33,1.4-3.83.94-2.31-.7-3.3,2.92-1,3.62,3.37,1,9.81.06,9.09-4.84-.35-2.4-2.63-4.66-3.88-6.66-.93-1.49-2.28-3.45-1.5-5.25.9-2.05,3.29-2.23,5.24-1.95,2.36.34,3.38-3.27,1-3.62Z"/><path class="cls-31" d="M71.16,75.46c1.5-3.63.38-8.7.52-12.53,0-.65.1-5.5,1.16-5.46,1.68.07.47,6-1.51,6.35-2.37.4-1.37,4,1,3.62,7.36-1.23,5.87-16.33-1-13.44-3.08,1.29-3.24,5.73-3.37,8.54-.16,3.58,1,8.55-.4,11.92-.92,2.23,2.7,3.2,3.62,1Z"/><path class="cls-31" d="M55.64,56.83c-5.72,2.3-5.31,17.41,1.09,18.68,4.5.89,6.63-5,7.3-8.4.86-4.32.29-10-3.72-12.56-2-1.3-3.93,1.94-1.89,3.24,2.37,1.5,2.43,5.52,2.06,8-.17,1.14-1.4,6.45-3.06,6-2.07-.56-2.79-10.54-.78-11.35,2.21-.89,1.24-4.52-1-3.62Z"/></g></svg>